<svg xmlns="http://www.w3.org/2000/svg" width="430" height="430" fill="none" viewBox="0 0 430 430"><path fill="#ebe6ef" d="M25.605 216.277a2.96 2.96 0 0 1 0-2.552C59.39 143.114 131.499 94.343 215 94.343c83.5 0 155.609 48.771 189.394 119.381a2.96 2.96 0 0 1 0 2.552c-33.785 70.61-105.894 119.382-189.395 119.382-83.5 0-155.61-48.771-189.394-119.381"/><path fill="#ebe6ef" d="M123.828 115.131C98.056 143.222 76.455 175.169 60 210c19.925 42.176 47.395 80.123 80.679 112.117-50.613-19.173-91.877-57.359-115.074-105.841a2.96 2.96 0 0 1 0-2.55c20.565-42.982 55.331-77.872 98.223-98.595" opacity=".5" style="mix-blend-mode:multiply"/><path fill="#4bb3fd" d="M295 215c0 44.221-35.779 80.001-80 80.001s-80-35.78-80-80.001 35.779-80 80-80 80 35.779 80 80"/><path fill="#4bb3fd" d="M260.423 280.885A80 80 0 0 1 235 285.001c-44.221 0-80-35.779-80-80 0-27.345 13.68-51.461 34.577-65.886C157.84 149.726 135 179.668 135 215c0 44.221 35.779 80 80 80 16.877 0 32.525-5.211 45.423-14.115" opacity=".5" style="mix-blend-mode:multiply"/><path fill="#3a3347" d="M255 215c0 22.111-17.89 40-40 40-22.111 0-40-17.889-40-40s17.889-40 40-40c22.11 0 40 17.889 40 40"/><path fill="#3a3347" d="M234.403 249.996C212.569 249.677 195 231.911 195 210c0-15.067 8.307-28.174 20.596-34.996A39 39 0 0 0 215 175c-22.111 0-40 17.889-40 40s17.889 40 40 40a39.85 39.85 0 0 0 19.403-5.004" opacity=".5" style="mix-blend-mode:multiply"/><path fill="#ebe6ef" d="M205 187.5c0 9.673-7.827 17.5-17.5 17.5s-17.5-7.827-17.5-17.5 7.827-17.5 17.5-17.5 17.5 7.827 17.5 17.5"/></svg>